<?xml version="1.0" ?><!DOCTYPE svg  PUBLIC '-//W3C//DTD SVG 1.1//EN'  'http://www.w3.org/Graphics/SVG/1.1/DTD/svg11.dtd'><svg height="512px" style="enable-background:new 0 0 512 512;" version="1.1" viewBox="0 0 512 512" width="512px" xml:space="preserve" xmlns="http://www.w3.org/2000/svg" xmlns:xlink="http://www.w3.org/1999/xlink"><g id="hight_x2C__alert_x2C__army_x2C__man_x2C__military"><g><path d="M204.138,432.578c-0.071,0.138-0.142,0.553-0.142,0.553    l-2.001,5.039c-0.344,0.895-0.415,2.14-0.759,3.247c-1.238,4.694-2.959,7.036-2.271,13.459c0.479,4.766,1.855,2.009-0.486,9.808    c-0.565,1.935-0.079,3.24,2.615,4.347c1.032,0.419,2.143,0.49,3.179,0.835c1.235,0.482,0.961,0.89,2.832,1.1    c13.059,1.451,4.354,2.626,15.124,8.013c15.184,7.59,44.952-0.139,31.826-13.743c-6.763-6.973-15.954-0.688-19.122-9.939    c-0.344-0.901-0.618-1.594-1.04-2.35c-1.38-2.483-4.485-5.802-4.212-8.771c0.071-0.83,0.83-2.14,1.253-5.248    c0.688-4.275-0.363-4.347-0.636-5.593c-0.344-1.862,0.142-4.347-0.131-6.276c-0.143-0.901-0.213-1.935-0.344-2.832    c-0.213-1.036-0.344-1.729-0.558-2.835c-0.752-4.212-1.167-7.389-0.688-11.738l0.83-5.94c0.76-5.174,1.234-19.68,3.038-22.983    l5.102-7.878c1.456-2.277,4.006-5.798,4.006-9.246c0-2.899-3.796-7.598-2.611-16.438l0.404-9.317    c-0.06-2.346-1.589-1.8,0.558-8.151c0.89-2.622,2.214-7.249,4.485-8.768c1.934,1.241,3.105,2.696,4.706,4.282    c2.125,2.14,6.823,5.454,6.135,7.389c-0.617,1.657-3.453,1.106,1.519,7.316c0.486,0.692,0.554,0.961,0.897,1.661    c-1.941,2.895-0.688,2.686-2.558,7.866c-1.994,5.521-6.834,14.918-3.726,20.503c2.005,3.527,3.655,0.28,3.524,6.984    c-0.142,3.313-5.518,10.141-4.081,14.146c0.213,0.554,0.071-0.138,0.344,0.764c1.036,3.037-0.617,22.227-1.092,26.308    c-0.344,2.971-1.175,5.241-1.668,9.105c-0.688,5.943,0.273,7.945-2.757,13.055c-2.689,4.351-2.689,7.526-2.346,12.838    c0.139,2.971,2.144,5.248,4.279,6.494c2.896,1.729,4.979,0.973,8.847,1.586c1.44,0.21,13.597,0.763,13.597,0.83    c0.415,1.179,16.152,2.697,18.715,2.697c5.577,0,9.789-0.621,14.981-1.11c6.146-0.551,8.009-5.178,4.829-9.39    c-0.628-0.826-1.519-1.242-2.349-2.136c-3.876-3.864-10.912-4.837-17.188-4.003c-3.939,0.482-3.382-0.28-5.395-2.768l-5.103-5.933    c-0.202-0.352-0.202-0.352-0.486-0.625l-0.546-0.621c-1.598-1.729-2.978-2.765-5.113-3.936c0-3.726,1.934-6.979,3.311-10.219    c2.693-6.349,5.185-12.913,8.15-18.984l4.493-9.049c1.511-3.378,7.178-14.503,10.275-16.845c2.076-1.66,4.908-5.524,5.323-8.289    c0.415-2.207-1.032-3.662-0.76-5.798c0.486-3.456,3.251-5.521,1.175-10.841c-1.668-4.275,2.896-3.243,1.934-16.635    c-0.272-4.354-1.388-7.526-3.108-10.429c-0.897-1.522-2.831-6.771-4.141-9.39c-1.87-3.804-4.291-7.118-6.143-10.844    c-0.213-0.486-0.344-0.688-0.557-1.171c-0.202-0.55-0.132-0.764-0.404-1.313c-1.186-2.551-1.052-0.138-1.672-5.042    c-0.547-4.212-0.476-8.354-1.104-12.498c-0.273-2.068-0.891-3.864-0.969-5.798c-0.124-2.346,0.28-4.003,0.28-6.494    c1.661-0.89,4.698-1.653,5.589-3.512c-0.071,2.895-0.202,8.005-0.273,16.772c0,0,0.142,1.179,1.388,1.246    c1.242,0.135,7.59-0.067,8.765-0.067c1.104,0,1.104-0.763,1.104-0.763c0.272-27.962,0.973-18.573,0.973-18.573    s0.07-0.352,0.272-0.834l1.377,0.28l0.213-0.688l-0.344-0.827l1.163-2.559c1.53,1.38,2.765,1.586,4.908,1.451    c7.047,3.239,13.949,6.494,20.914,9.666l20.375,9.662c2.421,1.104,5.185,3.112,6.625,1.242l1.736-0.965l0.134-0.277l4.557,2.693    l1.578,0.973l-0.344,0.688l4.212,2.48c0.221-0.199,0.423-0.412,0.636-0.551l2.065,1.175v0.071l-0.973,1.586    c0,0,3.595,2.757,4.829,0.688h0.071l6.153,3.595c0.479,0.276,1.44-0.482,2.147-1.729c0.748-1.171,0.961-2.412,0.475-2.693    l-6.213-3.658c0.688-1.934-3.109-3.587-3.109-3.587l-0.759,1.309l-2.005-1.174c0.202-0.692,0.272-1.107,0.272-1.107l1.388-2.413    c2.903-2.278,3.109-5.454,3.109-5.454l0.07,0.067l1.65-2.764c0,0,2.831-3.727,2.356-7.8c0,0-1.253-1.107-3.39-1.934    c0,0-3.037,2.97-3.998,6.763l-1.602,2.765l-0.891-0.482l-2.356-1.381l-2.199-1.316l-1.941-1.1l-0.819-0.55l-0.558-0.831    l-11.319-6.628c0.345-1.246-0.344-2.761-1.799-3.595c-1.447-0.831-3.108-0.756-3.939,0.146l-1.993-1.175l-8.29-4.838l-8.97-5.313    l-5.738-4.283l-6.011-3.518c-0.618-0.692-1.097-1.526-1.714-2.422c-0.415-0.688-0.973-1.308-1.447-1.996    c-1.874-2.418-4.16-4.56-6.427-6.559c-1.316-1.107-2.622-1.528-2.35-3.943c0.202-2.343,1.164-1.721,1.306-3.451    c0.071-1.59-0.759-5.523-0.89-7.386c-0.345-7.251,0-10.568-1.033-18.433c-0.486-3.937-1.376-11.459-0.901-15.193    c0.214-1.316,0.831-1.17,1.377-2.005c0-3.239-0.273-4.277-1.377-6.484c-1.04-2.07-3.946-8.77-4.563-11.259    c-0.479-2.071-0.823-4.556-1.447-6.485c-3.038-9.671-5.387-17.061-9.737-26.101c-0.344-0.69-0.344-0.552-0.752-1.246    c-0.28-0.484-0.344-0.831-0.628-1.311l-3.034-4.904c-2.622-4.281-1.238-3.726-6.562-5.313c-1.447-0.415-2.064-0.346-3.662-0.619    c-4.484-0.763-7.38-6.219-11.39-8.289l-5.103-2.834c-1.732-1.1-1.04-0.065-3.108,0c-1.111-2.136-0.483-3.108,2.199-3.108    c2.356-0.062,3.662-0.413,4.919-1.659c8.552-8.347,1.649-8.626,3.239-13.109c0.688-1.939,2.207-1.939,3.239-3.245    c2.278-2.833-1.721-9.464-0.344-10.846c0.486-0.208,5.66,0.137,1.729-2.551c2.128-4.56,0.894-2.142,4.069-4.352    c7.594-5.106,1.175-5.796-0.546-7.941c-6.153-7.8-4.212-18.088-18.026-24.647c-22.927-10.908-44.541,7.248-44.541,31.004    c-0.071,5.456,1.874,7.663,3.109,12.148c0.628,2.49-0.961,5.521-1.785,7.878c-1.668,4.345-1.182,5.448,3.999,5.727    c2.349,0.14,4.212-0.209,6.209,0.273c0,2.353-1.38,2.97-2.543,4.21c-2.357,2.212-8.989,5.598-12.573,8.083    c-5.042,3.451-19.68,1.928-23.544,3.795c-1.316,5.66,0.344,3.66-6.348,7.25c-0.902,0.419-1.033,0.555-1.803,1.036    c-3.733,2.349-6.142,4.212-8.563,8.078c-7.178,11.534-12.898,23.894-21.266,34.73c-0.961,1.24-1.713,1.311-2.693,2.626    c-4.07,5.456-3.382,5.588-4.972,12.015c-1.934,7.588-0.617,6.007,4.082,10.629l5.667,5.315    c5.921,4.629,14.768,8.907,21.883,11.737c1.31,0.557,2.896,1.174,3.524,2.145c-1.526,0.825-2.214,1.109-3.595,2.344    c-2.214,2.005-8.155,6.909-9.393,8.635c-6.771-1.59-9.393-3.593-13.743-0.415c-2.563,1.863-1.855,4.073-3.251,5.729    c-2.267,2.896-3.176,7.182-4.343,10.635c-1.032,3.042-2.207,5.729-3.868,8.355c-2.274,3.593-4.96,7.111-7.519,10.493    c-4.9,6.423-9.464,13.464-3.048,20.58l2.428,3.52c1.653,2.14,11.937,7.044,15.46,8.488c4.706,2.009,9.262,3.804,14.566,3.112    c8.158-1.104,6.905,0.134,12.572-5.529c0.688-0.688,0.759-0.756,1.306-1.515c0.486-0.621,0.961-1.179,1.739-1.448    c1.855-0.55,3.18,0.685,4.485,1.171c3.512,1.385,0.404,0.902,1.784,9.259c0.554,3.243,1.526,6.415,2.356,9.523    c1.306,4.972,6.558,20.229,4.414,24.857l-1.998,4.141c-0.553,1.519-1.04,3.041-1.526,4.418c-0.546,1.519-1.104,2.828-1.721,4.216    c-0.688,1.38-1.238,2.555-1.871,4.069c-0.894,2.14,0.139,2.828,1.182,4.216c4.006,5.521,3.24,11.667,3.52,20.503    c0,1.661,0.692,4.003,0.348,5.177c-0.486,1.242-1.803,2.278-2.349,3.595c-1.863,4.347,4.343,10.497,7.523,12.842    c0.546,0.345,1.447,0.823,1.657,1.452c1.317,3.239-1.313,15.396,7.048,29.132c7.863,12.913,1.242,12.221,5.791,18.161    L204.138,432.578z M294.169,268.938c-0.273-0.823-0.83-1.863-1.245-2.757c0.142,0.071,0.284,0.071,0.485,0.135l1.448,0.554    l-0.21,2.341C294.647,269.21,294.442,266.042,294.169,268.938L294.169,268.938z M373.086,280.68L373.086,280.68l-0.344-0.277    c-0.276,0.55-0.965,1.863-1.997,2.552l0.759,0.415L373.086,280.68z" style="fill-rule:evenodd;clip-rule:evenodd;fill:#262626;"/></g></g><g id="Layer_1"/></svg>