<svg id="Layer_1" data-name="Layer 1" xmlns="http://www.w3.org/2000/svg" viewBox="0 0 876.26 259" style=""><defs><style>.cls-1{fill:#fff;}</style></defs><title>Luck</title><path class="cls-1 BKkOsvWb_0" width="189" height="24" d="M 9.5,234.5 L 180.5,234.5 A 9,9,0,0,1,189.5,243.5 L 189.5,249.5 A 9,9,0,0,1,180.5,258.5 L 9.5,258.5 A 9,9,0,0,1,0.5,249.5 L 0.5,243.5 A 9,9,0,0,1,9.5,234.5"></path><path d="M268,323a9,9,0,0,1,9,9v5a9,9,0,0,1-9,9H98a9,9,0,0,1-9-9v-5a9,9,0,0,1,9-9H268m0-1H98a10,10,0,0,0-10,10v5a10,10,0,0,0,10,10H268a10,10,0,0,0,10-10v-5a10,10,0,0,0-10-10Z" transform="translate(-88 -88)" class="BKkOsvWb_1"></path><path class="cls-1 BKkOsvWb_2" d="M101.5,346.5a13,13,0,0,1-13-13v-232a13,13,0,0,1,26,0v232A13,13,0,0,1,101.5,346.5Z" transform="translate(-88 -88)"></path><path d="M101.5,89A12.52,12.52,0,0,1,114,101.5v232a12.5,12.5,0,0,1-25,0v-232A12.52,12.52,0,0,1,101.5,89m0-1A13.49,13.49,0,0,0,88,101.5v232a13.5,13.5,0,0,0,27,0v-232A13.49,13.49,0,0,0,101.5,88Z" transform="translate(-88 -88)" class="BKkOsvWb_3"></path><path class="cls-1 BKkOsvWb_4" d="M324.5,346.5a13,13,0,0,1-13-13v-232a13,13,0,0,1,26,0v232A13,13,0,0,1,324.5,346.5Z" transform="translate(-88 -88)"></path><path d="M324.5,89A12.52,12.52,0,0,1,337,101.5v232a12.5,12.5,0,0,1-25,0v-232A12.52,12.52,0,0,1,324.5,89m0-1A13.49,13.49,0,0,0,311,101.5v232a13.5,13.5,0,0,0,27,0v-232A13.49,13.49,0,0,0,324.5,88Z" transform="translate(-88 -88)" class="BKkOsvWb_5"></path><path class="cls-1 BKkOsvWb_6" d="M487.5,346.5a13,13,0,0,1-13-13v-232a13,13,0,0,1,26,0v232A13,13,0,0,1,487.5,346.5Z" transform="translate(-88 -88)"></path><path d="M487.5,89A12.52,12.52,0,0,1,500,101.5v232a12.5,12.5,0,0,1-25,0v-232A12.52,12.52,0,0,1,487.5,89m0-1A13.49,13.49,0,0,0,474,101.5v232a13.5,13.5,0,0,0,27,0v-232A13.49,13.49,0,0,0,487.5,88Z" transform="translate(-88 -88)" class="BKkOsvWb_7"></path><path class="cls-1 BKkOsvWb_8" width="189" height="24" d="M223.5 234.5 L412.5 234.5 L412.5 258.5 L223.5 258.5 Z"></path><path d="M500,323v23H312V323H500m1-1H311v25H501V322Z" transform="translate(-88 -88)" class="BKkOsvWb_9"></path><path class="cls-1 BKkOsvWb_10" d="M555.5,346.5a12,12,0,0,1,0-24h165a12,12,0,0,1,0,24Z" transform="translate(-88 -88)"></path><path d="M720.5,323a11.5,11.5,0,0,1,0,23h-165a11.5,11.5,0,0,1,0-23h165m0-1h-165a12.5,12.5,0,0,0,0,25h165a12.5,12.5,0,0,0,0-25Z" transform="translate(-88 -88)" class="BKkOsvWb_11"></path><path class="cls-1 BKkOsvWb_12" d="M555.5,112.5a12,12,0,0,1,0-24h165a12,12,0,0,1,0,24Z" transform="translate(-88 -88)"></path><path d="M720.5,89a11.5,11.5,0,0,1,0,23h-165a11.5,11.5,0,0,1,0-23h165m0-1h-165A12.5,12.5,0,0,0,543,100.5h0A12.5,12.5,0,0,0,555.5,113h165A12.5,12.5,0,0,0,733,100.5h0A12.5,12.5,0,0,0,720.5,88Z" transform="translate(-88 -88)" class="BKkOsvWb_13"></path><path class="cls-1 BKkOsvWb_14" width="26" height="258" d="M455.5 0.5 L481.5 0.5 L481.5 258.5 L455.5 258.5 Z"></path><path d="M569,89V346H544V89h25m1-1H543V347h27V88Z" transform="translate(-88 -88)" class="BKkOsvWb_15"></path><path class="cls-1 BKkOsvWb_16" width="26" height="258" d="M689.5 0.5 L715.5 0.5 L715.5 258.5 L689.5 258.5 Z"></path><path d="M803,89V346H778V89h25m1-1H777V347h27V88Z" transform="translate(-88 -88)" class="BKkOsvWb_17"></path><path class="cls-1 BKkOsvWb_18" d="M789.12,206a12,12,0,0,1-10.46-6.12,12,12,0,0,1,4.56-16.34L945.87,91.94a12,12,0,1,1,11.78,20.91L795,204.43A12,12,0,0,1,789.12,206Z" transform="translate(-88 -88)"></path><path d="M951.75,90.89h0a11.51,11.51,0,0,1,5.65,21.53L794.75,204A11.5,11.5,0,0,1,778,190.88a11.35,11.35,0,0,1,5.43-6.92L946.12,92.38a11.5,11.5,0,0,1,5.63-1.49m0-1a12.45,12.45,0,0,0-6.12,1.61L783,183.08a12.5,12.5,0,0,0-4.76,17h0a12.49,12.49,0,0,0,17,4.76l162.65-91.58a12.5,12.5,0,0,0-6.14-23.4Z" transform="translate(-88 -88)" class="BKkOsvWb_19"></path><path class="cls-1 BKkOsvWb_20" d="M919.63,346.06a12,12,0,0,1-8.86-3.9L781.49,200.7a12,12,0,0,1,8.85-20.1,12,12,0,0,1,8.86,3.91L928.49,326a12,12,0,0,1-8.86,20.09Z" transform="translate(-88 -88)"></path><path d="M790.34,181.1h0a11.52,11.52,0,0,1,8.49,3.74L928.12,326.3a11.5,11.5,0,0,1-17,15.52L781.86,200.36a11.5,11.5,0,0,1,8.48-19.26m0-1A12.49,12.49,0,0,0,781.12,201L910.4,342.5a12.51,12.51,0,0,0,17.66.79h0a12.49,12.49,0,0,0,.79-17.66L799.57,184.17a12.45,12.45,0,0,0-9.23-4.07Z" transform="translate(-88 -88)" class="BKkOsvWb_21"></path><style data-made-with="vivus-instant">.BKkOsvWb_0{stroke-dasharray:411 413;stroke-dashoffset:412;animation:BKkOsvWb_draw_0 7200ms ease-in 0ms infinite,BKkOsvWb_fade 7200ms linear 0ms infinite;}.BKkOsvWb_1{stroke-dasharray:820 822;stroke-dashoffset:821;animation:BKkOsvWb_draw_1 7200ms ease-in 0ms infinite,BKkOsvWb_fade 7200ms linear 0ms infinite;}.BKkOsvWb_2{stroke-dasharray:546 548;stroke-dashoffset:547;animation:BKkOsvWb_draw_2 7200ms ease-in 0ms infinite,BKkOsvWb_fade 7200ms linear 0ms infinite;}.BKkOsvWb_3{stroke-dasharray:1092 1094;stroke-dashoffset:1093;animation:BKkOsvWb_draw_3 7200ms ease-in 0ms infinite,BKkOsvWb_fade 7200ms linear 0ms infinite;}.BKkOsvWb_4{stroke-dasharray:546 548;stroke-dashoffset:547;animation:BKkOsvWb_draw_4 7200ms ease-in 0ms infinite,BKkOsvWb_fade 7200ms linear 0ms infinite;}.BKkOsvWb_5{stroke-dasharray:1092 1094;stroke-dashoffset:1093;animation:BKkOsvWb_draw_5 7200ms ease-in 0ms infinite,BKkOsvWb_fade 7200ms linear 0ms infinite;}.BKkOsvWb_6{stroke-dasharray:546 548;stroke-dashoffset:547;animation:BKkOsvWb_draw_6 7200ms ease-in 0ms infinite,BKkOsvWb_fade 7200ms linear 0ms infinite;}.BKkOsvWb_7{stroke-dasharray:1092 1094;stroke-dashoffset:1093;animation:BKkOsvWb_draw_7 7200ms ease-in 0ms infinite,BKkOsvWb_fade 7200ms linear 0ms infinite;}.BKkOsvWb_8{stroke-dasharray:426 428;stroke-dashoffset:427;animation:BKkOsvWb_draw_8 7200ms ease-in 0ms infinite,BKkOsvWb_fade 7200ms linear 0ms infinite;}.BKkOsvWb_9{stroke-dasharray:852 854;stroke-dashoffset:853;animation:BKkOsvWb_draw_9 7200ms ease-in 0ms infinite,BKkOsvWb_fade 7200ms linear 0ms infinite;}.BKkOsvWb_10{stroke-dasharray:406 408;stroke-dashoffset:407;animation:BKkOsvWb_draw_10 7200ms ease-in 0ms infinite,BKkOsvWb_fade 7200ms linear 0ms infinite;}.BKkOsvWb_11{stroke-dasharray:811 813;stroke-dashoffset:812;animation:BKkOsvWb_draw_11 7200ms ease-in 0ms infinite,BKkOsvWb_fade 7200ms linear 0ms infinite;}.BKkOsvWb_12{stroke-dasharray:406 408;stroke-dashoffset:407;animation:BKkOsvWb_draw_12 7200ms ease-in 0ms infinite,BKkOsvWb_fade 7200ms linear 0ms infinite;}.BKkOsvWb_13{stroke-dasharray:811 813;stroke-dashoffset:812;animation:BKkOsvWb_draw_13 7200ms ease-in 0ms infinite,BKkOsvWb_fade 7200ms linear 0ms infinite;}.BKkOsvWb_14{stroke-dasharray:568 570;stroke-dashoffset:569;animation:BKkOsvWb_draw_14 7200ms ease-in 0ms infinite,BKkOsvWb_fade 7200ms linear 0ms infinite;}.BKkOsvWb_15{stroke-dasharray:1136 1138;stroke-dashoffset:1137;animation:BKkOsvWb_draw_15 7200ms ease-in 0ms infinite,BKkOsvWb_fade 7200ms linear 0ms infinite;}.BKkOsvWb_16{stroke-dasharray:568 570;stroke-dashoffset:569;animation:BKkOsvWb_draw_16 7200ms ease-in 0ms infinite,BKkOsvWb_fade 7200ms linear 0ms infinite;}.BKkOsvWb_17{stroke-dasharray:1136 1138;stroke-dashoffset:1137;animation:BKkOsvWb_draw_17 7200ms ease-in 0ms infinite,BKkOsvWb_fade 7200ms linear 0ms infinite;}.BKkOsvWb_18{stroke-dasharray:449 451;stroke-dashoffset:450;animation:BKkOsvWb_draw_18 7200ms ease-in 0ms infinite,BKkOsvWb_fade 7200ms linear 0ms infinite;}.BKkOsvWb_19{stroke-dasharray:898 900;stroke-dashoffset:899;animation:BKkOsvWb_draw_19 7200ms ease-in 0ms infinite,BKkOsvWb_fade 7200ms linear 0ms infinite;}.BKkOsvWb_20{stroke-dasharray:459 461;stroke-dashoffset:460;animation:BKkOsvWb_draw_20 7200ms ease-in 0ms infinite,BKkOsvWb_fade 7200ms linear 0ms infinite;}.BKkOsvWb_21{stroke-dasharray:918 920;stroke-dashoffset:919;animation:BKkOsvWb_draw_21 7200ms ease-in 0ms infinite,BKkOsvWb_fade 7200ms linear 0ms infinite;}@keyframes BKkOsvWb_draw{100%{stroke-dashoffset:0;}}@keyframes BKkOsvWb_fade{0%{stroke-opacity:1;}94.44444444444444%{stroke-opacity:1;}100%{stroke-opacity:0;}}@keyframes BKkOsvWb_draw_0{11.11111111111111%{stroke-dashoffset: 412}12.183290654341807%{ stroke-dashoffset: 0;}100%{ stroke-dashoffset: 0;}}@keyframes BKkOsvWb_draw_1{12.183290654341807%{stroke-dashoffset: 821}14.319842608206857%{ stroke-dashoffset: 0;}100%{ stroke-dashoffset: 0;}}@keyframes BKkOsvWb_draw_2{14.319842608206857%{stroke-dashoffset: 547}15.74334311827285%{ stroke-dashoffset: 0;}100%{ stroke-dashoffset: 0;}}@keyframes BKkOsvWb_draw_3{15.743343118272854%{stroke-dashoffset: 1093}18.587741760872735%{ stroke-dashoffset: 0;}100%{ stroke-dashoffset: 0;}}@keyframes BKkOsvWb_draw_4{18.587741760872735%{stroke-dashoffset: 547}20.011242270938727%{ stroke-dashoffset: 0;}100%{ stroke-dashoffset: 0;}}@keyframes BKkOsvWb_draw_5{20.01124227093873%{stroke-dashoffset: 1093}22.855640913538608%{ stroke-dashoffset: 0;}100%{ stroke-dashoffset: 0;}}@keyframes BKkOsvWb_draw_6{22.855640913538608%{stroke-dashoffset: 547}24.279141423604607%{ stroke-dashoffset: 0;}100%{ stroke-dashoffset: 0;}}@keyframes BKkOsvWb_draw_7{24.279141423604607%{stroke-dashoffset: 1093}27.123540066204484%{ stroke-dashoffset: 0;}100%{ stroke-dashoffset: 0;}}@keyframes BKkOsvWb_draw_8{27.123540066204484%{stroke-dashoffset: 427}28.234755272416876%{ stroke-dashoffset: 0;}100%{ stroke-dashoffset: 0;}}@keyframes BKkOsvWb_draw_9{28.234755272416884%{stroke-dashoffset: 853}30.45458330730956%{ stroke-dashoffset: 0;}100%{ stroke-dashoffset: 0;}}@keyframes BKkOsvWb_draw_10{30.45458330730956%{stroke-dashoffset: 407}31.513750962879687%{ stroke-dashoffset: 0;}100%{ stroke-dashoffset: 0;}}@keyframes BKkOsvWb_draw_11{31.513750962879687%{stroke-dashoffset: 812}33.62688151895572%{ stroke-dashoffset: 0;}100%{ stroke-dashoffset: 0;}}@keyframes BKkOsvWb_draw_12{33.62688151895572%{stroke-dashoffset: 407}34.68604917452585%{ stroke-dashoffset: 0;}100%{ stroke-dashoffset: 0;}}@keyframes BKkOsvWb_draw_13{34.68604917452585%{stroke-dashoffset: 812}36.79917973060188%{ stroke-dashoffset: 0;}100%{ stroke-dashoffset: 0;}}@keyframes BKkOsvWb_draw_14{36.79917973060188%{stroke-dashoffset: 569}38.27993254637436%{ stroke-dashoffset: 0;}100%{ stroke-dashoffset: 0;}}@keyframes BKkOsvWb_draw_15{38.27993254637437%{stroke-dashoffset: 1137}41.238835800387236%{ stroke-dashoffset: 0;}100%{ stroke-dashoffset: 0;}}@keyframes BKkOsvWb_draw_16{41.238835800387236%{stroke-dashoffset: 569}42.71958861615972%{ stroke-dashoffset: 0;}100%{ stroke-dashoffset: 0;}}@keyframes BKkOsvWb_draw_17{42.719588616159726%{stroke-dashoffset: 1137}45.67849187017259%{ stroke-dashoffset: 0;}100%{ stroke-dashoffset: 0;}}@keyframes BKkOsvWb_draw_18{45.67849187017259%{stroke-dashoffset: 450}46.84956175962359%{ stroke-dashoffset: 0;}100%{ stroke-dashoffset: 0;}}@keyframes BKkOsvWb_draw_19{46.84956175962359%{stroke-dashoffset: 899}49.189099160993486%{ stroke-dashoffset: 0;}100%{ stroke-dashoffset: 0;}}@keyframes BKkOsvWb_draw_20{49.189099160993486%{stroke-dashoffset: 460}50.38619282576562%{ stroke-dashoffset: 0;}100%{ stroke-dashoffset: 0;}}@keyframes BKkOsvWb_draw_21{50.38619282576562%{stroke-dashoffset: 919}52.77777777777778%{ stroke-dashoffset: 0;}100%{ stroke-dashoffset: 0;}}</style></svg>